<svg width="114" height="114" viewBox="0 0 114 114" fill="none" xmlns="http://www.w3.org/2000/svg">
<path d="M57 92.625C58.8897 92.625 60.7019 93.3757 62.0381 94.7119C63.3743 96.0481 64.125 97.8603 64.125 99.75V106.875C64.125 108.765 63.3743 110.577 62.0381 111.913C60.7019 113.249 58.8897 114 57 114C55.1103 114 53.2981 113.249 51.9619 111.913C50.6257 110.577 49.875 108.765 49.875 106.875V99.75C49.875 97.8603 50.6257 96.0481 51.9619 94.7119C53.2981 93.3757 55.1103 92.625 57 92.625ZM57 21.375C55.1103 21.375 53.2981 20.6243 51.9619 19.2881C50.6257 17.9519 49.875 16.1397 49.875 14.25V7.125C49.875 5.23533 50.6257 3.42306 51.9619 2.08686C53.2981 0.750668 55.1103 0 57 0C58.8897 0 60.7019 0.750668 62.0381 2.08686C63.3743 3.42306 64.125 5.23533 64.125 7.125V14.25C64.125 16.1397 63.3743 17.9519 62.0381 19.2881C60.7019 20.6243 58.8897 21.375 57 21.375V21.375ZM106.875 49.875C108.765 49.875 110.577 50.6257 111.913 51.9619C113.249 53.2981 114 55.1103 114 57C114 58.8897 113.249 60.7019 111.913 62.0381C110.577 63.3743 108.765 64.125 106.875 64.125H99.75C97.8603 64.125 96.0481 63.3743 94.7119 62.0381C93.3757 60.7019 92.625 58.8897 92.625 57C92.625 55.1103 93.3757 53.2981 94.7119 51.9619C96.0481 50.6257 97.8603 49.875 99.75 49.875H106.875ZM21.375 57C21.375 58.8897 20.6243 60.7019 19.2881 62.0381C17.9519 63.3743 16.1397 64.125 14.25 64.125H7.125C5.23533 64.125 3.42306 63.3743 2.08686 62.0381C0.750668 60.7019 0 58.8897 0 57C0 55.1103 0.750668 53.2981 2.08686 51.9619C3.42306 50.6257 5.23533 49.875 7.125 49.875H14.25C16.1397 49.875 17.9519 50.6257 19.2881 51.9619C20.6243 53.2981 21.375 55.1103 21.375 57ZM92.2687 82.194L97.3061 87.2314C98.604 88.5752 99.3222 90.375 99.3059 92.2431C99.2897 94.1113 98.5404 95.8983 97.2193 97.2193C95.8983 98.5404 94.1113 99.2897 92.2431 99.3059C90.375 99.3222 88.5752 98.604 87.2314 97.3061L82.194 92.2687C80.8961 90.925 80.178 89.1252 80.1942 87.257C80.2104 85.3889 80.9598 83.6018 82.2808 82.2808C83.6018 80.9598 85.3889 80.2104 87.257 80.1942C89.1252 80.178 90.925 80.8961 92.2687 82.194ZM21.7312 31.806L16.6939 26.7686C16.0324 26.1071 15.5076 25.3218 15.1496 24.4575C14.7916 23.5931 14.6073 22.6668 14.6073 21.7312C14.6073 20.7957 14.7916 19.8694 15.1496 19.005C15.5076 18.1407 16.0324 17.3554 16.6939 16.6939C17.3554 16.0324 18.1407 15.5076 19.005 15.1496C19.8694 14.7916 20.7957 14.6073 21.7312 14.6073C22.6668 14.6073 23.5931 14.7916 24.4575 15.1496C25.3218 15.5076 26.1071 16.0324 26.7686 16.6939L31.806 21.7312C32.4675 22.3928 32.9923 23.1781 33.3503 24.0424C33.7083 24.9067 33.8925 25.8331 33.8925 26.7686C33.8925 27.7042 33.7083 28.6305 33.3503 29.4948C32.9923 30.3591 32.4675 31.1445 31.806 31.806C31.1445 32.4675 30.3591 32.9923 29.4948 33.3503C28.6305 33.7083 27.7042 33.8925 26.7686 33.8925C25.8331 33.8925 24.9067 33.7083 24.0424 33.3503C23.1781 32.9923 22.3928 32.4675 21.7312 31.806V31.806ZM92.2687 31.806C90.9328 33.142 89.1208 33.8925 87.2314 33.8925C85.342 33.8925 83.53 33.142 82.194 31.806C80.858 30.47 80.1074 28.658 80.1074 26.7686C80.1074 24.8792 80.858 23.0672 82.194 21.7312L87.2314 16.6939C88.5674 15.3579 90.3794 14.6073 92.2687 14.6073C94.1581 14.6073 95.9701 15.3579 97.3061 16.6939C98.6421 18.0299 99.3927 19.8419 99.3927 21.7312C99.3927 23.6206 98.6421 25.4326 97.3061 26.7686L92.2687 31.806ZM21.7312 82.194C23.075 80.8961 24.8748 80.178 26.743 80.1942C28.6111 80.2104 30.3982 80.9598 31.7192 82.2808C33.0402 83.6018 33.7896 85.3889 33.8058 87.257C33.822 89.1252 33.1039 90.925 31.806 92.2687L26.7686 97.3061C25.4248 98.604 23.625 99.3222 21.7569 99.3059C19.8887 99.2897 18.1017 98.5404 16.7807 97.2193C15.4596 95.8983 14.7103 94.1113 14.6941 92.2431C14.6778 90.375 15.396 88.5752 16.6939 87.2314L21.7312 82.194Z" fill="#FFD600"/>
<path d="M57 28.5C49.4413 28.5 42.1922 31.5027 36.8475 36.8475C31.5027 42.1922 28.5 49.4413 28.5 57C28.5 64.5587 31.5027 71.8078 36.8475 77.1525C42.1922 82.4973 49.4413 85.5 57 85.5C64.5587 85.5 71.8078 82.4973 77.1525 77.1525C82.4973 71.8078 85.5 64.5587 85.5 57C85.5 49.4413 82.4973 42.1922 77.1525 36.8475C71.8078 31.5027 64.5587 28.5 57 28.5ZM57 74.8125C52.2758 74.8125 47.7452 72.9358 44.4047 69.5953C41.0642 66.2548 39.1875 61.7242 39.1875 57C39.1875 52.2758 41.0642 47.7452 44.4047 44.4047C47.7452 41.0642 52.2758 39.1875 57 39.1875C61.7242 39.1875 66.2548 41.0642 69.5953 44.4047C72.9358 47.7452 74.8125 52.2758 74.8125 57C74.8125 61.7242 72.9358 66.2548 69.5953 69.5953C66.2548 72.9358 61.7242 74.8125 57 74.8125Z" fill="#FFD600"/>
</svg>
