<svg width="114" height="114" viewBox="0 0 114 114" fill="none" xmlns="http://www.w3.org/2000/svg">
<path d="M60.5623 106.875C59.9553 106.875 59.3584 106.719 58.8283 106.424C58.2983 106.128 57.8525 105.702 57.5335 105.185C57.2144 104.669 57.0326 104.079 57.0053 103.473C56.978 102.867 57.1061 102.263 57.3774 101.72L64.5024 87.4703C64.7025 87.0371 64.9875 86.6486 65.3406 86.3278C65.6937 86.0069 66.1077 85.7602 66.5579 85.6024C67.0081 85.4445 67.4855 85.3787 67.9616 85.4089C68.4378 85.439 68.903 85.5645 69.3297 85.7778C69.7565 85.9912 70.136 86.2881 70.4458 86.6509C70.7556 87.0138 70.9894 87.4351 71.1332 87.89C71.2771 88.3449 71.3281 88.8241 71.2833 89.2991C71.2384 89.7741 71.0986 90.2352 70.8722 90.6551L63.7472 104.905C63.4522 105.497 62.9978 105.995 62.4352 106.343C61.8725 106.692 61.2239 106.876 60.5623 106.875V106.875Z" fill="#B7C5FF"/>
<path d="M28.4998 106.875C27.8928 106.875 27.2959 106.719 26.7658 106.424C26.2358 106.128 25.79 105.702 25.471 105.185C25.1519 104.669 24.9701 104.079 24.9428 103.473C24.9155 102.867 25.0436 102.263 25.3149 101.72L32.4399 87.4703C32.64 87.0371 32.925 86.6486 33.2781 86.3278C33.6312 86.0069 34.0452 85.7602 34.4954 85.6024C34.9456 85.4445 35.423 85.3787 35.8991 85.4089C36.3753 85.439 36.8405 85.5645 37.2672 85.7778C37.694 85.9912 38.0735 86.2881 38.3833 86.6509C38.6931 87.0138 38.9269 87.4351 39.0707 87.89C39.2146 88.3449 39.2656 88.8241 39.2208 89.2991C39.1759 89.7741 39.0361 90.2352 38.8097 90.6551L31.6847 104.905C31.3897 105.497 30.9353 105.995 30.3727 106.343C29.81 106.692 29.1614 106.876 28.4998 106.875Z" fill="#B7C5FF"/>
<path d="M106.875 55.2189C106.85 49.89 104.997 44.7312 101.625 40.6046C98.2531 36.478 93.5672 33.6337 88.3502 32.5471C86.8322 25.3572 82.8889 18.9076 77.1813 14.2792C71.4737 9.65086 64.3486 7.125 57.0002 7.125C49.6518 7.125 42.5267 9.65086 36.8191 14.2792C31.1115 18.9076 27.1682 25.3572 25.6502 32.5471C20.8948 33.5111 16.5633 35.9468 13.269 39.5091C9.97469 43.0714 7.88459 47.5798 7.2947 52.3959C6.70481 57.212 7.64502 62.0916 9.98219 66.3437C12.3194 70.5958 15.935 74.0048 20.3171 76.088L14.6278 87.4702C14.4013 87.8901 14.2616 88.3513 14.2167 88.8262C14.1719 89.3012 14.2229 89.7804 14.3667 90.2353C14.5106 90.6902 14.7444 91.1115 15.0542 91.4744C15.364 91.8372 15.7435 92.1341 16.1702 92.3475C16.597 92.5609 17.0622 92.6863 17.5384 92.7165C18.0145 92.7466 18.4919 92.6808 18.9421 92.523C19.3923 92.3651 19.8063 92.1184 20.1593 91.7976C20.5124 91.4767 20.7975 91.0882 20.9975 90.6551L27.1357 78.3751H51.236L46.6903 87.4702C46.4638 87.8901 46.324 88.3513 46.2792 88.8262C46.2344 89.3012 46.2854 89.7804 46.4292 90.2353C46.5731 90.6902 46.8069 91.1115 47.1167 91.4744C47.4265 91.8372 47.806 92.1341 48.2327 92.3475C48.6595 92.5609 49.1247 92.6863 49.6009 92.7165C50.077 92.7466 50.5544 92.6808 51.0046 92.523C51.4548 92.3651 51.8688 92.1184 52.2218 91.7976C52.5749 91.4767 52.86 91.0882 53.06 90.6551L59.2054 78.3751H83.3021L78.7564 87.4702C78.5299 87.8901 78.3901 88.3513 78.3453 88.8262C78.3004 89.3012 78.3515 89.7804 78.4953 90.2353C78.6392 90.6902 78.8729 91.1115 79.1827 91.4744C79.4925 91.8372 79.8721 92.1341 80.2988 92.3475C80.7255 92.5609 81.1908 92.6863 81.6669 92.7165C82.1431 92.7466 82.6204 92.6808 83.0707 92.523C83.5209 92.3651 83.9348 92.1184 84.2879 91.7976C84.641 91.4767 84.926 91.0882 85.1261 90.6551L92.0552 76.7969C96.4122 75.1125 100.158 72.1509 102.803 68.3004C105.448 64.4499 106.867 59.8901 106.875 55.2189V55.2189ZM83.7189 71.2501H30.2814C26.1334 71.2636 22.1418 69.6677 19.1465 66.7981C16.1512 63.9285 14.3856 60.009 14.2213 55.8642C14.057 51.7194 15.5068 47.6724 18.2656 44.5747C21.0244 41.4771 24.8771 39.5702 29.0132 39.2553L31.9202 39.0273L32.2729 36.1346C33.0165 30.0997 35.9412 24.5451 40.496 20.5171C45.0509 16.489 50.9215 14.2656 57.002 14.2656C63.0824 14.2656 68.953 16.489 73.5079 20.5171C78.0627 24.5451 80.9874 30.0997 81.731 36.1346L82.0837 39.0273L84.9872 39.2553C89.1233 39.5702 92.976 41.4771 95.7348 44.5747C98.4935 47.6724 99.9433 51.7194 99.779 55.8642C99.6147 60.009 97.8492 63.9285 94.8539 66.7981C91.8585 69.6677 87.867 71.2636 83.7189 71.2501V71.2501Z" fill="#B7C5FF"/>
</svg>
